Coordinates
version=1
nRows=10
nColumns=40
inDegrees=yes

Units are S.I. units (second, meters, Newtons, ...)
Angles are in degrees.

endheader
time	pelvis_tilt	pelvis_list	pelvis_rotation	pelvis_tx	pelvis_ty	pelvis_tz	hip_flexion_r	hip_adduction_r	hip_rotation_r	knee_angle_r	knee_angle_r_beta	ankle_angle_r	subtalar_angle_r	mtp_angle_r	hip_flexion_l	hip_adduction_l	hip_rotation_l	knee_angle_l	knee_angle_l_beta	ankle_angle_l	subtalar_angle_l	mtp_angle_l	lumbar_extension	lumbar_bending	lumbar_rotation	arm_flex_r	arm_add_r	arm_rot_r	elbow_flex_r	pro_sup_r	wrist_flex_r	wrist_dev_r	arm_flex_l	arm_add_l	arm_rot_l	elbow_flex_l	pro_sup_l	wrist_flex_l	wrist_dev_l
     18.93000000	     -3.94440733	     -5.00172461	     -0.48934361	      0.80800473	      0.92727266	      0.53710952	     15.22074616	      2.97646951	    -14.52668983	     20.09055307	     20.09055307	     10.24169473	     -1.61652372	     -3.65379195	     28.14002892	    -12.81063064	      0.43255339	     59.88399573	     59.88399573	     10.09745280	    -18.50508666	     11.98580294	    -10.47062674	      7.24944160	      2.31970750	     23.55103775	    -15.52637653	     -3.39364390	     59.18622447	     45.19048480	      0.00000000	      0.00000000	      5.70683980	     -6.66140847	     -3.70108879	     29.20558576	     45.26545800	      0.00000000	      0.00000000
     18.94321429	     -4.13816563	     -4.91770918	     -0.02293135	      0.80621685	      0.92764220	      0.53769159	     14.85473593	      2.94742406	    -14.73735254	     19.71835718	     19.71835718	     10.44058949	     -1.76792221	     -3.63769668	     29.30238770	    -12.78255416	      0.41049159	     57.65294241	     57.65294241	     10.37017446	    -18.59086304	     12.23427981	    -10.30337945	      7.05060185	      2.57776887	     25.59140314	    -16.07598443	     -3.66236229	     60.28147517	     45.17445367	      0.00000000	      0.00000000	      4.50017680	     -6.39651389	     -3.60613853	     28.58873987	     45.23573491	      0.00000000	      0.00000000
     18.95642857	     -4.13461603	     -4.89082339	      0.54435871	      0.80460972	      0.92841575	      0.53819151	     14.05869948	      3.04322785	    -14.97025332	     18.93483058	     18.93483058	     10.52557540	     -1.90811617	     -3.55751589	     30.03651365	    -12.62817728	      0.58254864	     55.04326038	     55.04326038	     10.62968435	    -18.76020632	     12.73484705	    -10.47610833	      7.01484308	      1.88022332	     27.65756454	    -15.66618230	     -3.56068300	     62.83388466	     45.09560414	      0.00000000	      0.00000000	      3.08221390	     -6.50610898	     -3.36094834	     27.46990794	     45.18877037	      0.00000000	      0.00000000
     18.96964286	     -4.24706625	     -4.84125776	      1.04664915	      0.80293876	      0.92882416	      0.53858982	     13.51866153	      3.07773579	    -15.20127412	     18.38099101	     18.38099101	     10.64639919	     -2.05537641	     -3.59471473	     30.76161914	    -12.43344586	      0.64587107	     52.26265989	     52.26265989	     10.85771540	    -18.78609818	     13.22164371	    -10.47708569	      6.90373944	      1.83115687	     29.53076086	    -16.00816070	     -3.50506272	     64.99045817	     45.03283758	      0.00000000	      0.00000000	      1.88066078	     -6.41042297	     -3.13688738	     26.72244596	     45.14478544	      0.00000000	      0.00000000
     18.98285714	     -4.34791622	     -4.83343430	      1.54925181	      0.80128841	      0.92914722	      0.53879493	     12.94827633	      3.15018308	    -15.47016599	     17.78231163	     17.78231163	     10.73005302	     -2.12843652	     -3.74308987	     31.35603019	    -12.16794047	      0.79731239	     49.31608114	     49.31608114	     11.09449747	    -18.74483450	     13.70064579	    -10.53217211	      6.90477402	      1.81160313	     31.20950264	    -16.45469186	     -3.32937937	     67.65785948	     44.95105063	      0.00000000	      0.00000000	      0.70712349	     -6.32339508	     -2.79721196	     25.98454918	     45.08551790	      0.00000000	      0.00000000
     18.99607143	     -4.62253073	     -4.82744264	      2.02162087	      0.79947578	      0.92908643	      0.53884808	     12.71665594	      3.16961382	    -15.73863096	     17.45166895	     17.45166895	     10.90390580	     -2.26547383	     -3.80493266	     32.06615975	    -11.84927067	      0.93031363	     46.26785549	     46.26785549	     11.22426818	    -18.49818372	     14.03363162	    -10.33823651	      6.88290883	      2.12874761	     33.06269449	    -17.13914237	     -3.56572869	     68.84505533	     44.93047263	      0.00000000	      0.00000000	     -0.31209325	     -6.16002858	     -2.70105195	     25.57386168	     45.05583035	      0.00000000	      0.00000000
     19.00928571	     -4.67772061	     -4.70033334	      2.50650497	      0.79794507	      0.92949569	      0.53866160	     12.02674006	      3.10939976	    -15.99461005	     16.73219553	     16.73219553	     11.01290899	     -2.18197910	     -3.90226925	     32.27149784	    -11.24161550	      1.22623647	     42.87811641	     42.87811641	     11.25242641	    -18.37075677	     14.25320258	    -10.43483256	      6.71548840	      1.96972050	     34.74408228	    -17.25267117	     -3.52078460	     71.11049625	     44.86519158	      0.00000000	      0.00000000	     -1.42227457	     -6.18809148	     -2.48181510	     25.02008251	     45.00775421	      0.00000000	      0.00000000
     19.02250000	     -4.85016895	     -4.78926730	      3.01355428	      0.79630885	      0.92945113	      0.53830541	     11.48886945	      3.22004225	    -16.60644863	     16.02794964	     16.02794964	     10.95028881	     -1.78809033	     -4.64165869	     32.62337524	    -10.82858592	      1.60068408	     39.49340310	     39.49340310	     10.93074208	    -17.95826827	     13.11342500	    -10.49010948	      6.89278481	      2.19054220	     35.68899587	    -18.14486521	     -3.27237733	     75.17197909	     44.74697666	      0.00000000	      0.00000000	     -2.41000071	     -6.17136767	     -1.72740974	     24.79074765	     44.88376638	      0.00000000	      0.00000000
     19.03571429	     -5.18911565	     -4.89642484	      3.46218407	      0.79448604	      0.92898605	      0.53788410	     11.38428759	      3.32291921	    -16.89854478	     15.78225158	     15.78225158	     11.14719469	     -1.92302773	     -4.73149453	     33.20496961	    -10.42922203	      1.95861671	     36.30846072	     36.30846072	     11.24636587	    -16.82187354	     13.20586332	    -10.20906229	      6.99994026	      2.51665620	     37.39029282	    -18.75120102	     -3.60227635	     75.99340310	     44.74122063	      0.00000000	      0.00000000	     -3.29418447	     -6.09348027	     -1.65991497	     24.51923022	     44.85924679	      0.00000000	      0.00000000
     19.04892857	     -5.24752589	     -4.79176929	      3.93355861	      0.79315719	      0.92921720	      0.53711968	     10.53948064	      3.27138014	    -17.42535899	     14.76244076	     14.76244076	     10.87991694	     -1.45639526	     -5.87766556	     32.95049668	     -9.78455610	      2.18435403	     32.35645512	     32.35645512	      9.87989509	    -16.14081867	      9.55021637	    -10.37147523	      6.91270814	      2.83801325	     38.06901319	    -19.37939869	     -3.93359337	     79.93345345	     44.68186772	      0.00000000	      0.00000000	     -4.30504460	     -6.28496469	      0.01928427	     24.86212948	     44.60548024	      0.00000000	      0.00000000
